<?xml version="1.0" encoding="utf-8"?>
<!-- Generator: Adobe Illustrator 16.0.0, SVG Export Plug-In . SVG Version: 6.00 Build 0)  -->
<!DOCTYPE svg PUBLIC "-//W3C//DTD SVG 1.1//EN" "http://www.w3.org/Graphics/SVG/1.1/DTD/svg11.dtd">
<svg version="1.1" id="Layer_1" xmlns="http://www.w3.org/2000/svg" xmlns:xlink="http://www.w3.org/1999/xlink" x="0px" y="0px"
	 width="22px" height="22px" viewBox="0 0 22 22" enable-background="new 0 0 22 22" xml:space="preserve">
<g>
	<g>
		<path d="M12.048,8.638c-1.524-0.016-3.823,1.399-3.681,3.136c0.134,1.634,2.462,1.864,3.706,1.602
			c1.259-0.267,2.604-1.224,2.423-2.653c-0.174-1.374-1.33-2.199-2.668-2.162c-0.407,0.012-0.884,0.239-1.171,0.522
			c-0.253,0.249-0.144,0.447,0.195,0.438c1.364-0.038,2.524,1.7,1.751,2.907c-0.068,0.106-0.208,0.134,0.009,0.055
			c-0.188,0.068-0.42,0.029-0.612,0.014c-0.497-0.042-0.97-0.177-1.398-0.434c-0.875-0.523-0.645-2.476,0.472-2.464
			c0.4,0.004,0.892-0.248,1.172-0.522C12.505,8.819,12.379,8.642,12.048,8.638L12.048,8.638z"/>
	</g>
</g>
<g>
	<g>
		<path d="M10.311,1.791c-0.01,1.548-0.125,3.092,0,4.638c-0.011-0.136,1.634-0.47,1.614-0.719c-0.125-1.546-0.011-3.09,0-4.638
			C11.924,1.258,10.313,1.496,10.311,1.791L10.311,1.791z"/>
	</g>
</g>
<g>
	<g>
		<path d="M1.181,5.411c1.182,0.93,2.256,2.019,3.497,2.871c0.467,0.321,1.947-0.561,1.469-0.89C4.905,6.54,3.832,5.451,2.649,4.521
			C2.21,4.176,0.706,5.037,1.181,5.411L1.181,5.411z"/>
	</g>
</g>
<g>
	<g>
		<path d="M4.565,14.066c-1.172,0.864-2.364,1.699-3.553,2.54c-0.177,0.125-0.694,0.608-0.17,0.657
			c0.516,0.049,1.122-0.24,1.529-0.528c1.188-0.841,2.38-1.676,3.553-2.54c0.172-0.127,0.697-0.607,0.17-0.657
			C5.586,13.49,4.964,13.772,4.565,14.066L4.565,14.066z"/>
	</g>
</g>
<g>
	<g>
		<path d="M10.385,16.81c0.153,1.356,0.236,2.721,0.243,4.086c0.001,0.145,1.617-0.221,1.614-0.719
			c-0.006-1.365-0.09-2.729-0.243-4.086C11.977,15.89,10.333,16.345,10.385,16.81L10.385,16.81z"/>
	</g>
</g>
<g>
	<g>
		<path d="M16.667,14.394c1.206,0.073,2.039,1.537,2.982,2.144c0.398,0.257,1.821-0.625,1.492-0.836
			c-1.048-0.675-1.847-2.119-3.203-2.2c-0.396-0.024-0.829,0.172-1.146,0.395C16.666,13.983,16.267,14.37,16.667,14.394
			L16.667,14.394z"/>
	</g>
</g>
<g>
	<g>
		<path d="M18.296,7.771c0.764-0.633,1.558-1.222,2.441-1.677c0.141-0.072,0.933-0.597,0.54-0.811
			c-0.415-0.226-1.087,0.136-1.444,0.319c-1.201,0.618-2.267,1.44-3.303,2.299c-0.357,0.296-0.173,0.578,0.243,0.547
			C17.337,8.408,17.869,8.125,18.296,7.771L18.296,7.771z"/>
	</g>
</g>
</svg>
