<?xml version="1.0" encoding="utf-8"?>
<!-- Generator: Adobe Illustrator 16.0.0, SVG Export Plug-In . SVG Version: 6.00 Build 0)  -->
<!DOCTYPE svg PUBLIC "-//W3C//DTD SVG 1.1//EN" "http://www.w3.org/Graphics/SVG/1.1/DTD/svg11.dtd">
<svg version="1.1" id="Layer_1" xmlns="http://www.w3.org/2000/svg" xmlns:xlink="http://www.w3.org/1999/xlink" x="0px" y="0px"
	 width="22px" height="22px" viewBox="0 0 22 22" enable-background="new 0 0 22 22" xml:space="preserve">
<g>
	<g>
		<path d="M18.345,3.651c-1.771-1.9-5.13-2.068-7.564-1.951C8.599,1.804,6.741,2.814,5.252,4.361
			c-3.185,3.31-5.37,9.908-1.934,13.666c3.526,3.855,10.282,2.94,13.814-0.221c4.204-3.763,4.52-11.239,0.366-15.084
			c-0.354-0.328-1.653,0.383-1.242,0.764c3.217,2.979,3.451,7.784,1.685,11.611c-2.375,5.142-8.705,5.634-12.933,2.564
			c-3.341-2.426-1.962-7.327-0.471-10.357c1.274-2.587,3.05-4.588,6.146-4.736c2.104-0.101,4.927,0.248,6.419,1.848
			C17.423,4.76,18.738,4.073,18.345,3.651L18.345,3.651z"/>
	</g>
</g>
<g>
	<g>
		<path d="M7.647,15.006c1.541-3.445,5.036-5.412,7.532-8.091c0.553-0.594-0.876-0.327-1.168-0.014
			c-2.563,2.752-6.102,4.764-7.688,8.313C6.062,15.799,7.468,15.408,7.647,15.006L7.647,15.006z"/>
	</g>
</g>
<g>
	<g>
		<path d="M6.3,7.298c3.515,1.799,6.213,4.675,9.047,7.355c0.187,0.177,1.284-0.691,1.371-0.609
			c-2.835-2.682-5.533-5.558-9.048-7.356C7.346,6.521,6.522,7.411,6.3,7.298L6.3,7.298z"/>
	</g>
</g>
</svg>
