<?xml version="1.0" encoding="utf-8"?>
<!-- Generator: Adobe Illustrator 16.0.0, SVG Export Plug-In . SVG Version: 6.00 Build 0)  -->
<!DOCTYPE svg PUBLIC "-//W3C//DTD SVG 1.1//EN" "http://www.w3.org/Graphics/SVG/1.1/DTD/svg11.dtd">
<svg version="1.1" id="Layer_1" xmlns="http://www.w3.org/2000/svg" xmlns:xlink="http://www.w3.org/1999/xlink" x="0px" y="0px"
	 width="22px" height="22px" viewBox="0 0 22 22" enable-background="new 0 0 22 22" xml:space="preserve">
<g>
	<g>
		<path d="M3.678,2.873c2.746,2.26,4.858,5.038,6.848,7.964c2.045,3.007,4.284,5.96,6.193,9.049
			c0.141,0.228,1.451-0.479,1.371-0.609c-1.771-2.865-3.873-5.559-5.737-8.369c-2.103-3.171-4.35-6.213-7.305-8.645
			C4.754,2.021,3.678,2.873,3.678,2.873L3.678,2.873z"/>
	</g>
</g>
<g>
	<g>
		<path d="M3.665,19.452c2.381-3.121,5.457-5.718,8.188-8.528c2.68-2.757,5.06-5.975,8.022-8.432c0.747-0.62-0.549-0.438-0.896-0.15
			c-3.051,2.53-5.508,5.794-8.263,8.638c-2.792,2.883-5.915,5.533-8.354,8.73C2.056,20.112,3.43,19.76,3.665,19.452L3.665,19.452z"
			/>
	</g>
</g>
</svg>
