<?xml version="1.0" encoding="utf-8"?>
<!-- Generator: Adobe Illustrator 16.0.0, SVG Export Plug-In . SVG Version: 6.00 Build 0)  -->
<!DOCTYPE svg PUBLIC "-//W3C//DTD SVG 1.1//EN" "http://www.w3.org/Graphics/SVG/1.1/DTD/svg11.dtd">
<svg version="1.1" id="Layer_1" xmlns="http://www.w3.org/2000/svg" xmlns:xlink="http://www.w3.org/1999/xlink" x="0px" y="0px"
	 width="22px" height="22px" viewBox="0 0 22 22" enable-background="new 0 0 22 22" xml:space="preserve">
<g>
	<g>
		<path d="M3.358,6.383c3.949,3.352,7.647,6.969,11.25,10.688c0.373,0.385,2.303-0.998,2.283-1.018
			c-3.603-3.718-7.3-7.335-11.25-10.687C5.191,4.984,3.396,6.416,3.358,6.383L3.358,6.383z"/>
	</g>
</g>
<g>
	<g>
		<path d="M5.142,18.804c2.452-7.418,9.451-12.86,15.527-17.281c-0.438,0.319-1.613,0.519-2.213,0.955
			C12.358,6.914,5.315,12.389,2.858,19.821C3.014,19.349,4.949,19.387,5.142,18.804L5.142,18.804z"/>
	</g>
</g>
</svg>
