<?xml version="1.0" encoding="utf-8"?>
<!-- Generator: Adobe Illustrator 16.0.0, SVG Export Plug-In . SVG Version: 6.00 Build 0)  -->
<!DOCTYPE svg PUBLIC "-//W3C//DTD SVG 1.1//EN" "http://www.w3.org/Graphics/SVG/1.1/DTD/svg11.dtd">
<svg version="1.1" id="Layer_1" xmlns="http://www.w3.org/2000/svg" xmlns:xlink="http://www.w3.org/1999/xlink" x="0px" y="0px"
	 width="22px" height="22px" viewBox="0 0 22 22" enable-background="new 0 0 22 22" xml:space="preserve">
<g>
	<g>
		<path d="M15.727,3.158c-1.381-0.825-2.857-0.159-4.155,0.539c-1.451,0.78-1.76,2.91-2.041,4.361
			c-0.463,2.393-0.593,4.849-0.855,7.269c-0.115,1.061-0.261,2.117-0.517,3.153c-0.094,0.381-0.241,0.742-0.436,1.081
			c-0.113,0.197-0.232-0.769-0.308-1.217c-0.007-0.038-1.886,0.474-1.829,0.811c0.266,1.565,1.837,0.973,2.861,0.458
			c1.18-0.593,1.451-1.447,1.717-2.715c0.512-2.439,0.579-4.985,0.871-7.457c0.146-1.238,0.35-2.465,0.651-3.675
			c0.339-1.362,0.605-2.76,2.213-1.8C14.341,4.231,15.56,3.058,15.727,3.158L15.727,3.158z"/>
	</g>
</g>
<g>
	<g>
		<path d="M7.978,10.028c1.247-0.129,2.5-0.093,3.75-0.167c0.418-0.024,0.97-0.173,1.296-0.45c0.339-0.287-0.303-0.281-0.444-0.273
			c-1.251,0.074-2.501,0.037-3.75,0.167C8.403,9.349,7.87,9.47,7.534,9.755C7.199,10.039,7.832,10.043,7.978,10.028L7.978,10.028z"
			/>
	</g>
</g>
</svg>
