<?xml version="1.0" encoding="utf-8"?>
<!-- Generator: Adobe Illustrator 16.0.0, SVG Export Plug-In . SVG Version: 6.00 Build 0)  -->
<!DOCTYPE svg PUBLIC "-//W3C//DTD SVG 1.1//EN" "http://www.w3.org/Graphics/SVG/1.1/DTD/svg11.dtd">
<svg version="1.1" id="Layer_1" xmlns="http://www.w3.org/2000/svg" xmlns:xlink="http://www.w3.org/1999/xlink" x="0px" y="0px"
	 width="22px" height="22px" viewBox="0 0 22 22" enable-background="new 0 0 22 22" xml:space="preserve">
<g>
	<g>
		<path d="M14.471,2.85c-3.179-0.797-4.334,3.032-4.752,5.333c-0.427,2.356-0.563,4.762-0.826,7.139
			c-0.102,0.926-0.23,1.848-0.431,2.758c-0.087,0.397-0.211,0.782-0.379,1.153c-0.28,0.617,0.87,0.341,0.09-0.037
			c-0.369-0.179-1.204,0.688-1.371,0.607c5.357,2.594,2.67-17.248,6.368-16.32C13.546,3.578,14.373,2.826,14.471,2.85L14.471,2.85z"
			/>
	</g>
</g>
<g>
	<g>
		<path d="M8.084,9.938c1.248-0.129,2.5-0.093,3.75-0.167c0.356-0.021,1.592-0.598,0.639-0.542c-1.251,0.074-2.501,0.037-3.75,0.167
			c-0.32,0.033-0.72,0.124-0.972,0.337C7.5,9.946,7.975,9.949,8.084,9.938L8.084,9.938z"/>
	</g>
</g>
</svg>
