<?xml version="1.0" encoding="utf-8"?>
<!-- Generator: Adobe Illustrator 16.0.0, SVG Export Plug-In . SVG Version: 6.00 Build 0)  -->
<!DOCTYPE svg PUBLIC "-//W3C//DTD SVG 1.1//EN" "http://www.w3.org/Graphics/SVG/1.1/DTD/svg11.dtd">
<svg version="1.1" id="Layer_1" xmlns="http://www.w3.org/2000/svg" xmlns:xlink="http://www.w3.org/1999/xlink" x="0px" y="0px"
	 width="22px" height="22px" viewBox="0 0 22 22" enable-background="new 0 0 22 22" xml:space="preserve">
<g>
	<path d="M12.342,13.718c1.827-1.19,3.786,0.982,4.661,2.356c-0.833-0.581-2.25-0.166-3.041,0.25
		c1.791,0.375,3.192,2.561,4.942,3.186c0.208-0.541,0.042-1.25,0-1.832c0-0.834,0.083-1.625,0.125-2.458
		c0.083-0.75,0.208-1.625,0.083-2.375c-0.833,0.375-1.026,2.338-1.443,3.087c-0.5-1.499-0.667-2.194-1.792-3.404
		c-1-1.125-2.04-1.744-3.374-1.827C13.24,11.978,12.849,11.856,12.342,13.718z"/>
	<g>
		<path d="M12.595,13.665c1.483-0.76,3.29,1.625,3.951,2.612c0.305-0.135,0.609-0.27,0.914-0.406
			c-1.223-0.601-2.493-0.09-3.645,0.451c-0.027,0.014-0.364,0.191-0.287,0.215c1.939,0.559,3.092,2.395,4.919,3.176
			c0.146,0.062,0.88-0.248,0.914-0.406c0.213-0.986-0.009-2.051,0.047-3.062c0.065-1.204,0.268-2.396,0.161-3.604
			c-0.006-0.066-0.795,0.304-0.864,0.351c-0.997,0.678-1.016,2.109-1.483,3.122c0.302-0.129,0.603-0.256,0.904-0.385
			c-0.83-2.509-2.338-4.91-5.189-5.24c-0.112-0.013-0.934,0.334-0.89,0.415c0.625,1.154,0.193,1.819-0.161,3.018
			c0.035-0.123,0.836-0.145,0.913-0.406c0.354-1.199,0.787-1.864,0.161-3.018c-0.297,0.138-0.594,0.276-0.891,0.415
			c2.852,0.33,4.32,2.738,5.143,5.223c0.023,0.07,0.854-0.273,0.904-0.383c0.447-0.97,0.462-2.415,1.403-3.055
			c-0.288,0.117-0.576,0.233-0.864,0.351c0.106,1.203-0.08,2.404-0.161,3.604c-0.068,1.016,0.168,2.07-0.047,3.061
			c0.305-0.135,0.609-0.27,0.914-0.406c-1.012-0.434-1.807-1.137-2.64-1.84c-0.473-0.4-0.962-0.75-1.501-1.057
			c-1.202-0.68,1.07-0.258,1.325-0.133c0.135,0.066,0.942-0.363,0.914-0.406c-1.385-2.067-3.059-3.284-5.371-2.101
			C11.538,14.054,12.442,13.743,12.595,13.665z"/>
	</g>
</g>
<g>
	<g>
		<path d="M12.159,3.107c0.854-2.278-3.336-1.293-3.95,0.516c-0.866,2.552-1.069,5.403-1.562,8.05
			c-0.196,1.052-0.35,2.098-0.486,3.159c-0.048,0.37-1.216,5.128-1.97,3.273c-0.161-0.396-1.538,0.196-1.37,0.609
			c1.081,2.663,3.643-0.422,4.197-1.824c0.782-1.979,0.791-4.441,1.179-6.527C8.466,8.919,8.71,7.47,8.963,6.022
			c0.091-0.506,0.18-1.014,0.265-1.521c0.157-0.929,2.273-2.897,1.544-0.954C10.649,3.873,11.997,3.541,12.159,3.107L12.159,3.107z"
			/>
	</g>
</g>
<g>
	<g>
		<path d="M4.166,8.896c2.126,0.026,4.249-0.113,6.375-0.125c0.438-0.003,1.585-0.892,0.766-0.888
			C9.181,7.896,7.058,8.035,4.931,8.008C4.491,8.003,3.343,8.886,4.166,8.896L4.166,8.896z"/>
	</g>
</g>
</svg>
