<?xml version="1.0" encoding="utf-8"?>
<!-- Generator: Adobe Illustrator 16.0.0, SVG Export Plug-In . SVG Version: 6.00 Build 0)  -->
<!DOCTYPE svg PUBLIC "-//W3C//DTD SVG 1.1//EN" "http://www.w3.org/Graphics/SVG/1.1/DTD/svg11.dtd">
<svg version="1.1" id="Layer_1" xmlns="http://www.w3.org/2000/svg" xmlns:xlink="http://www.w3.org/1999/xlink" x="0px" y="0px"
	 width="22px" height="22px" viewBox="0 0 22 22" enable-background="new 0 0 22 22" xml:space="preserve">
<g>
	<g>
		<path d="M55.486,6.74c3.341-3.541,6.325-0.727,7.135,2.536c0.674,2.712-0.381,5.427-1.928,7.623
			c-0.804,1.141-2.947,3.577-4.593,3.134c-1.348-0.362-0.904-2.388-0.646-3.223c0.812-2.615,4.907-6.32,7.498-3.996
			c0.334,0.3,1.99-0.469,1.833-0.609c-2.89-2.592-8.47,0.911-10.325,3.272c-1.12,1.425-1.942,3.962-0.194,5.165
			c1.284,0.883,3.802-0.397,4.896-1.014c4.611-2.601,7.514-9.274,4.032-13.864c-2.2-2.9-7.659-0.692-9.601,1.365
			C53.609,7.112,55.104,7.144,55.486,6.74L55.486,6.74z"/>
	</g>
</g>
<g>
	<g>
		<path d="M8.504,9.093C6.497,9.484,7.528,6.115,7.986,5.508c1.179-1.564,3.833-2.423,5.634-1.721
			c2.691,1.049-0.31,3.505-1.275,4.474c-1.574,1.579-3.454,3.112-4.588,5.059c-1.149,1.971,1.625,1.708,2.787,1.562
			c0.584-0.074,3.199-1.106,1.334-0.87c-3.578,0.452,0.642-3.694,1.431-4.493c1.16-1.174,5.045-3.812,4.081-5.749
			c-1.495-3.001-7.984-0.316-9.923,0.676C5.895,5.25,4.49,6.342,4.348,8.212c-0.159,2.097,2.181,1.884,3.529,1.623
			C8.897,9.636,10.556,8.695,8.504,9.093L8.504,9.093z"/>
	</g>
</g>
<g>
	<g>
		<path d="M9.871,20.027c1.65,0,2.229-2.104,0.262-2.104C8.483,17.923,7.904,20.027,9.871,20.027L9.871,20.027z"/>
	</g>
</g>
<g>
	<g>
		<path d="M-21.66,27.605c-1.962,0.385-0.943-2.579-0.39-3.203c0.853-0.962,2.89-1.385,4.084-1.358
			c0.742,0.016,2.138,0.634,1.663,1.588c-0.343,0.688-1.006,1.268-1.535,1.809c-1.382,1.414-3.002,2.731-4.077,4.408
			c-1.058,1.649,0.989,1.56,2.101,1.419c0.39-0.049,2.132-0.737,0.89-0.58c-3.223,0.407,0.525-3.202,1.258-3.937
			c0.931-0.935,4.438-3.342,2.905-4.823c-1.717-1.659-6.051,0.194-7.777,1.003c-1.158,0.542-1.974,1.259-2.229,2.564
			c-0.355,1.82,1.464,1.845,2.689,1.604C-21.398,27.966-20.293,27.337-21.66,27.605L-21.66,27.605z"/>
	</g>
</g>
<g>
	<g>
		<path d="M-20.457,36.429c1.1,0,1.486-1.402,0.175-1.402C-21.382,35.026-21.768,36.429-20.457,36.429L-20.457,36.429z"/>
	</g>
</g>
<g>
	<g>
		<path d="M-37.947,16.314c-0.068,0.121-0.086,0.194-0.121,0.329c0.627-0.189,1.254-0.379,1.881-0.568
			c-1.165-1.056,3.004-6.306,3.624-7.163c1.687-2.333,3.658-4.456,5.668-6.509c4.256-4.347,9.066-8.016,13.635-12.012
			c0.333-0.291-1.412-0.059-1.729,0.219c-4.849,4.242-9.89,8.179-14.406,12.792c-2.215,2.262-4.25,4.686-6.051,7.289
			c-0.623,0.9-3.739,4.944-2.57,6.004c0.292,0.264,1.785-0.196,1.881-0.568c0.028-0.063,0.056-0.127,0.083-0.19
			C-35.98,15.806-37.695,15.863-37.947,16.314L-37.947,16.314z"/>
	</g>
</g>
</svg>
