<?xml version="1.0" encoding="utf-8"?>
<!-- Generator: Adobe Illustrator 16.0.0, SVG Export Plug-In . SVG Version: 6.00 Build 0)  -->
<!DOCTYPE svg PUBLIC "-//W3C//DTD SVG 1.1//EN" "http://www.w3.org/Graphics/SVG/1.1/DTD/svg11.dtd">
<svg version="1.1" id="Layer_1" xmlns="http://www.w3.org/2000/svg" xmlns:xlink="http://www.w3.org/1999/xlink" x="0px" y="0px"
	 width="22px" height="22px" viewBox="0 0 22 22" enable-background="new 0 0 22 22" xml:space="preserve">
<g>
	<g>
		<g>
			<g>
				<path d="M14.34,1.874C11.696-0.853,6.041-0.149,3.501,2.327c-2.443,2.382-4.929,8.333-2.015,11.221
					c3.206,3.176,8.429,2.874,11.733,0.099c3.643-3.062,3.86-9.321,0.422-12.535c-0.352-0.329-1.652,0.381-1.242,0.764
					c2.508,2.345,2.746,5.826,1.633,8.924c-1.677,4.668-7.349,5.125-10.883,2.4C0.565,11.207,1.785,7.25,2.961,4.876
					C4.043,2.694,5.577,1.17,8.193,1.138c1.658-0.021,3.709,0.268,4.905,1.5C13.428,2.978,14.738,2.284,14.34,1.874L14.34,1.874z"/>
			</g>
		</g>
		<g>
			<g>
				<path d="M11.643,14.883c2.642,1.822,4.38,4.51,6.402,6.941c0.178,0.214,1.055-0.32,1.212-0.427
					c0.906-0.623,1.337-1.767,2.28-2.307c0.039-0.022,0.33-0.177,0.289-0.265c-0.735-1.553-1.717-2.774-2.971-3.937
					c-1.191-1.103-2.313-2.336-3.872-2.885c-0.361-0.127-1.32,0.647-1.291,0.658c1.643,0.578,2.889,2,4.146,3.164
					c1.122,1.039,1.965,2.229,2.617,3.608c0.097-0.088,0.192-0.176,0.289-0.265c-1.089,0.624-1.526,1.775-2.54,2.471
					c0.404-0.142,0.808-0.284,1.212-0.427c-2.021-2.433-3.761-5.12-6.402-6.941C12.68,14.043,11.675,14.905,11.643,14.883
					L11.643,14.883z"/>
			</g>
		</g>
	</g>
	<g>
		<g>
			<path d="M6.296,4.975c-0.187,0.526-0.398,1.032-0.5,1.583c0.011,0.003,0.022,0.006,0.034,0.01
				c0.884,0.064,1.539,0.774,2.427,0.448C9.25,6.651,9.972,6.12,10.651,5.313c0.005-0.011,0.01-0.021,0.015-0.032
				c-0.559-0.736-1.421-0.839-2.284-0.927C8.125,4.329,7.736,4.57,7.516,4.676C7.475,4.696,6.983,4.975,7.08,4.985
				C7.652,5.042,8.21,5.106,8.731,5.37C8.885,5.448,9.39,5.768,9.182,6.015c-0.187,0.222-0.387,0.429-0.6,0.627
				c0.433-0.085,0.459-0.157,0.079-0.216C8.544,6.379,8.427,6.331,8.312,6.28C8.113,6.195,7.912,6.105,7.704,6.045
				c-0.371-0.106-0.547-0.13-0.431-0.578C7.37,5.091,7.537,4.73,7.667,4.365c0,0-0.67,0.206-0.72,0.228
				C6.796,4.66,6.359,4.796,6.296,4.975L6.296,4.975z"/>
		</g>
	</g>
</g>
</svg>
