<?xml version="1.0" encoding="utf-8"?>
<!-- Generator: Adobe Illustrator 16.0.0, SVG Export Plug-In . SVG Version: 6.00 Build 0)  -->
<!DOCTYPE svg PUBLIC "-//W3C//DTD SVG 1.1//EN" "http://www.w3.org/Graphics/SVG/1.1/DTD/svg11.dtd">
<svg version="1.1" id="Layer_1" xmlns="http://www.w3.org/2000/svg" xmlns:xlink="http://www.w3.org/1999/xlink" x="0px" y="0px"
	 width="22px" height="22px" viewBox="0 0 22 22" enable-background="new 0 0 22 22" xml:space="preserve">
<g>
	<g>
		<path d="M3.709,21.696c1.091-0.132,4.439,0.624,5.228-0.475c0.695-0.969,0.08-2.356,0.105-3.522
			c0.04-1.833,0.015-3.661-0.013-5.494C8.979,8.825,8.743,5.374,8.991,2.001c0.173-2.352-2.998-1.64-4.555-1.695
			C4.005,0.291,3.431,0.93,4.086,0.953c1.005,0.036,2.042,0.197,3.046,0.165c1.237-0.04,0.821,2.282,0.825,2.877
			c0.016,2.45,0.049,4.899,0.085,7.349c0.036,2.439,0.061,4.87,0.008,7.309c-0.015,0.712,0.572,2.329-0.707,2.358
			c-1.167,0.026-2.372-0.1-3.531,0.041C3.3,21.113,3.047,21.776,3.709,21.696L3.709,21.696z"/>
	</g>
</g>
<g>
	<g>
		<path d="M9.086,3.067c1.671-0.008,3.342-0.042,5.012-0.069c1.192-0.021,5.378-0.607,6.036,0.706
			c0.373,0.746-0.062,2.421-0.058,3.284c0.006,1.342,0.066,2.685,0.124,4.026c0.031,0.714,0.934,6.942-0.16,7.074
			C16.419,18.522,12.647,18.681,9,18.684c-0.159,0-0.828,0.308-0.467,0.307c3.846-0.003,7.999-0.016,11.789-0.669
			c1.858-0.32,0.8-3.768,0.728-5.035c-0.185-3.216,0.144-6.601-0.191-9.777C20.665,1.678,10.482,2.755,9.553,2.76
			C9.394,2.761,8.726,3.069,9.086,3.067L9.086,3.067z"/>
	</g>
</g>
<g>
	<path d="M10.539,14.301c0.063,0.383-0.032,0.797,0.063,1.18c0.608,0,1.183-0.031,1.791,0c0.064-0.318-0.032-0.67-0.063-0.988"/>
	<g>
		<path d="M10.177,14.398c0.044,0.395-0.008,0.787,0.063,1.178c0.016,0.086,0.156,0.096,0.217,0.094
			c0.598-0.002,1.195-0.023,1.791,0c0.129,0.006,0.485-0.068,0.506-0.24c0.044-0.352-0.019-0.686-0.062-1.033
			c-0.027-0.221-0.756-0.061-0.725,0.193c0.04,0.316,0.104,0.619,0.065,0.939c0.168-0.08,0.336-0.16,0.506-0.24
			c-0.598-0.025-1.194-0.002-1.791,0c0.072,0.031,0.145,0.062,0.217,0.094c-0.072-0.391-0.02-0.785-0.063-1.178
			C10.877,13.986,10.148,14.145,10.177,14.398L10.177,14.398z"/>
	</g>
</g>
<g>
	<g>
		<path d="M10.549,14.57c0.438,0,0.875,0,1.312,0c0.229,0,0.785-0.348,0.299-0.348c-0.437,0-0.874,0-1.312,0
			C10.619,14.223,10.063,14.57,10.549,14.57L10.549,14.57z"/>
	</g>
</g>
<g>
	<g>
		<path d="M13.722,15.076c1.489,0.125,2.986,0.123,4.461-0.148c0.246-0.045,0.727-0.145,0.846-0.408
			c0.114-0.252-0.503-0.178-0.586-0.164c-1.254,0.23-2.522,0.209-3.789,0.102c-0.337-0.027-0.743,0.09-1.024,0.275
			C13.392,14.891,13.446,15.053,13.722,15.076L13.722,15.076z"/>
	</g>
</g>
<g>
	<g>
		<path d="M10.135,6.255c2.209,0.009,4.416,0.116,6.625,0.125c0.439,0.001,1.575-0.661,0.605-0.665
			c-2.209-0.009-4.416-0.116-6.625-0.125C10.301,5.588,9.165,6.251,10.135,6.255L10.135,6.255z"/>
	</g>
</g>
<g>
	<g>
		<path d="M10.586,10.749c2.211-0.018,4.414-0.232,6.625-0.25c0.503-0.004,1.555-0.774,0.578-0.766
			c-2.211,0.018-4.414,0.232-6.625,0.25C10.661,9.987,9.609,10.757,10.586,10.749L10.586,10.749z"/>
	</g>
</g>
</svg>
