<?xml version="1.0" encoding="utf-8"?>
<!-- Generator: Adobe Illustrator 16.0.0, SVG Export Plug-In . SVG Version: 6.00 Build 0)  -->
<!DOCTYPE svg PUBLIC "-//W3C//DTD SVG 1.1//EN" "http://www.w3.org/Graphics/SVG/1.1/DTD/svg11.dtd">
<svg version="1.1" id="Layer_1" xmlns="http://www.w3.org/2000/svg" xmlns:xlink="http://www.w3.org/1999/xlink" x="0px" y="0px"
	 width="22px" height="22px" viewBox="0 0 22 22" enable-background="new 0 0 22 22" xml:space="preserve">
<g>
	<g>
		<path d="M6.996,19.328c-1.166,0.059-2.332,0.121-3.5,0.126c-0.282,0.001-1.053,0.429-0.408,0.426
			c1.168-0.005,2.333-0.066,3.5-0.126C6.865,19.74,7.639,19.295,6.996,19.328L6.996,19.328z"/>
	</g>
</g>
<g>
	<g>
		<path d="M2.602,3.392c0.304,0.021,3.707,0.131,3.707,0.081c0,1.72,0,3.44,0,5.16c0,3.638,0,7.276,0,10.915
			c0,0.288,0.966,0.108,0.966-0.26c0-5.424,0-10.848,0-16.272c0-0.112-0.224-0.141-0.293-0.138c-1.34,0.067-2.662,0.077-4-0.02
			C2.623,2.833,1.95,3.345,2.602,3.392L2.602,3.392z"/>
	</g>
</g>
<g>
	<g>
		<g>
			<path d="M15.104,4.567c-1.562,1.266-2.775,2.891-4.25,4.25c-0.399,0.368,0.558,0.304,0.763,0.115
				c1.474-1.358,2.69-2.985,4.251-4.25C16.283,4.344,15.316,4.395,15.104,4.567L15.104,4.567z"/>
		</g>
	</g>
	<g>
		<g>
			<path d="M10.283,6.129c0.055,0.819,0.014,1.641,0.059,2.461c0.023,0.431,0.245,0.562,0.644,0.638
				c1.069,0.203,2.384,0.28,3.454,0.126c0.434-0.062,0.826-0.556,0.152-0.459c-0.873,0.125-1.979,0.022-2.86-0.11
				c-0.462-0.069-0.42-0.363-0.439-0.767c-0.034-0.716,0.005-1.432-0.043-2.148C11.232,5.614,10.261,5.802,10.283,6.129
				L10.283,6.129z"/>
		</g>
	</g>
</g>
<g>
	<g>
		<g>
			<path d="M10.674,14.291c0.901,0.379,1.602,1.027,2.321,1.672c0.768,0.688,1.617,1.279,2.429,1.912
				c0.215,0.167,1.062-0.213,0.91-0.332c-0.813-0.634-1.655-1.231-2.43-1.913c-0.727-0.64-1.417-1.291-2.321-1.671
				C11.317,13.847,10.563,14.245,10.674,14.291L10.674,14.291z"/>
		</g>
	</g>
	<g>
		<g>
			<path d="M11.274,17.737c0.119-1.359,0.129-2.722,0.129-4.086c-0.263,0.118-0.526,0.236-0.789,0.354
				c1.412,0.065,2.822,0.116,4.226-0.071c0.423-0.057,0.836-0.521,0.16-0.432c-1.252,0.168-2.517,0.112-3.774,0.054
				c-0.205-0.009-0.789,0.059-0.789,0.354c0,1.327-0.005,2.653-0.121,3.977C10.289,18.2,11.251,18,11.274,17.737L11.274,17.737z"/>
		</g>
	</g>
</g>
</svg>
