<?xml version="1.0" encoding="utf-8"?>
<!-- Generator: Adobe Illustrator 16.0.0, SVG Export Plug-In . SVG Version: 6.00 Build 0)  -->
<!DOCTYPE svg PUBLIC "-//W3C//DTD SVG 1.1//EN" "http://www.w3.org/Graphics/SVG/1.1/DTD/svg11.dtd">
<svg version="1.1" id="Layer_1" xmlns="http://www.w3.org/2000/svg" xmlns:xlink="http://www.w3.org/1999/xlink" x="0px" y="0px"
	 width="22px" height="22px" viewBox="0 0 22 22" enable-background="new 0 0 22 22" xml:space="preserve">
<g>
	<g>
		<path fill="#878787" d="M8.358,2.828c0.893,0,3.323-0.212,4.091,0.424c0.427,0.425,0.129,1.784,0.129,2.42
			c-0.086,2.506,0.341,10.149,0.511,11.508c0.043,0.383,0.129,0.638-0.213,0.851c-0.427,0.339-1.834,0.168-2.303,0.212
			c-0.796,0.05-1.43,0.128-2.034,0.208"/>
		<g>
			<path d="M8.204,2.981c0.979-0.019,3.49-0.417,4.061,0.723c0.301,0.602-0.041,1.759-0.057,2.421
				c-0.044,1.836,0.067,3.683,0.152,5.516c0.079,1.717,0.173,3.434,0.316,5.147c0.149,1.785-2.752,1.354-4.072,1.521
				c-0.301,0.038-0.641,0.348-0.131,0.283c0.805-0.102,4.116,0.306,4.76-0.623c0.809-1.165-0.047-4.53-0.118-5.898
				c-0.129-2.484-0.323-5.017-0.098-7.5c0.231-2.537-2.756-1.93-4.504-1.896C8.312,2.679,7.722,2.99,8.204,2.981L8.204,2.981z"/>
		</g>
	</g>
	<g>
		<g>
			<path d="M11.9,15.628c-0.115,0.043-0.164,0.015-0.146-0.084c-0.055-0.169-0.396-0.066-0.499-0.028
				c-0.173,0.063-0.347,0.122-0.525,0.171c-0.172,0.06-0.343,0.048-0.512-0.035c-0.093-0.064-0.064-0.116-0.182-0.134
				c-0.423-0.062-0.96,0.123-1.379,0.177c-0.331,0.042-0.617,0.419-0.111,0.354c0.403-0.052,0.805-0.115,1.208-0.174
				c-0.094-0.014-0.188-0.027-0.282-0.041c0.456,0.575,1.514,0.134,2.058-0.067c-0.167-0.009-0.333-0.019-0.499-0.028
				c0.094,0.289,0.308,0.253,0.578,0.26C11.852,16.003,12.389,15.64,11.9,15.628L11.9,15.628z"/>
		</g>
	</g>
	<g>
		<g>
			<g>
				<path d="M8.045,11.231c0.069,0.901,0.042,1.804,0.039,2.707c0,0.121,0.482,0.039,0.483-0.129
					c0.002-0.903,0.03-1.806-0.039-2.708C8.519,10.972,8.033,11.068,8.045,11.231L8.045,11.231z"/>
			</g>
		</g>
		<g>
			<g>
				<path d="M8.552,11.264c0.562-0.339,0.444,0.669,0.323,0.66c-0.132-0.011-0.563,0.218-0.302,0.238
					c0.48,0.038,0.92-0.205,0.899-0.73c-0.027-0.674-0.836-0.51-1.213-0.282C7.982,11.318,8.413,11.348,8.552,11.264L8.552,11.264z"
					/>
			</g>
		</g>
		<g>
			<g>
				<path d="M10.674,11.111c-0.569-0.133-1.469,0.54-0.842,1.059c0.195,0.161,0.592,0.077,0.779-0.055
					c0.283-0.2,0.44-0.508,0.465-0.854c0.005-0.079-0.463-0.012-0.48,0.106c-0.06,0.403,0.165,0.618,0.56,0.617
					c0.104,0,0.551-0.204,0.312-0.203c-0.322,0.001-0.437-0.214-0.395-0.497c-0.16,0.036-0.32,0.071-0.48,0.106
					c-0.005,0.075-0.139,0.694-0.306,0.611c-0.208-0.102-0.195-0.744-0.008-0.7C10.394,11.33,10.818,11.145,10.674,11.111
					L10.674,11.111z"/>
			</g>
		</g>
		<g>
			<g>
				<path d="M12.368,11.049c-0.331,0.007-0.745,0.125-0.788,0.509c-0.046,0.419,0.427,0.551,0.748,0.523
					c0.149-0.014,0.52-0.263,0.199-0.234c-0.219,0.02-0.356-0.049-0.442-0.244c-0.031-0.07-0.05-0.316,0.084-0.319
					C12.322,11.28,12.691,11.042,12.368,11.049L12.368,11.049z"/>
			</g>
		</g>
	</g>
	<g>
		<g>
			<path d="M8.251,6.504C8.9,6.562,9.767,6.203,10.34,6.585c0.121,0.081,0.54-0.113,0.453-0.171C10.138,5.978,9.28,6.354,8.56,6.289
				C8.445,6.279,8,6.481,8.251,6.504L8.251,6.504z"/>
		</g>
	</g>
</g>
<g>
	<g>
		<path d="M3.709,21.696c1.091-0.132,4.439,0.624,5.228-0.475c0.695-0.969,0.08-2.356,0.105-3.522
			c0.04-1.833,0.015-3.661-0.013-5.494C8.979,8.825,8.743,5.374,8.991,2.001c0.173-2.352-2.998-1.64-4.555-1.695
			C4.005,0.291,3.431,0.93,4.086,0.953c1.005,0.036,2.042,0.197,3.046,0.165c1.237-0.04,0.821,2.282,0.825,2.877
			c0.016,2.45,0.049,4.899,0.085,7.349c0.036,2.439,0.061,4.87,0.008,7.309c-0.015,0.712,0.572,2.329-0.707,2.358
			c-1.167,0.026-2.372-0.1-3.531,0.041C3.3,21.113,3.047,21.776,3.709,21.696L3.709,21.696z"/>
	</g>
</g>
<g>
	<g>
		<path d="M14.388,6.181c0.21,2.98,0.361,5.939,0.666,8.916c0.017,0.159,0.746,0.017,0.725-0.193
			c-0.305-2.978-0.456-5.936-0.666-8.917C15.102,5.833,14.373,5.966,14.388,6.181L14.388,6.181z"/>
	</g>
</g>
<g>
	<g>
		<path d="M16.763,8.473c0.213,1.912,0.033,3.835,0.208,5.749c0.02,0.213,0.748,0.062,0.725-0.193
			c-0.175-1.915,0.005-3.838-0.208-5.75C17.463,8.063,16.734,8.22,16.763,8.473L16.763,8.473z"/>
	</g>
</g>
</svg>
