<?xml version="1.0" encoding="utf-8"?>
<!-- Generator: Adobe Illustrator 16.0.0, SVG Export Plug-In . SVG Version: 6.00 Build 0)  -->
<!DOCTYPE svg PUBLIC "-//W3C//DTD SVG 1.1//EN" "http://www.w3.org/Graphics/SVG/1.1/DTD/svg11.dtd">
<svg version="1.1" id="Layer_1" xmlns="http://www.w3.org/2000/svg" xmlns:xlink="http://www.w3.org/1999/xlink" x="0px" y="0px"
	 width="22px" height="22px" viewBox="0 0 22 22" enable-background="new 0 0 22 22" xml:space="preserve">
<g>
	<g>
		<path d="M2.483,3.337c2.777,0.191,5.522-0.091,8.291-0.304c0.623-0.048,7.092-0.603,7.314,0.348
			c0.438,1.874-0.188,4.449-0.253,6.332c-0.111,3.225,0.207,6.442,0.057,9.667c0.229-0.114,0.459-0.229,0.688-0.343
			c-5.012,0.261-10.065,0.351-15.083,0.417c-0.281,0.003-1.053,0.435-0.408,0.426c5.018-0.065,10.071-0.155,15.083-0.417
			c0.182-0.009,0.676-0.096,0.688-0.343c0.149-3.222-0.127-6.441-0.058-9.666c0.034-1.57,1.004-5.497,0.017-6.917
			c-0.109-0.157-0.408-0.174-0.593-0.167c-1.407,0.056-2.793,0.146-4.207,0.125C10.363,2.441,6.765,3.165,3.101,2.913
			C2.875,2.897,1.985,3.303,2.483,3.337L2.483,3.337z"/>
	</g>
</g>
<g>
	<g>
		<path d="M6.309,3.671c0,5.292,0,10.583,0,15.875c0,0.288,0.966,0.108,0.966-0.26c0-5.291,0-10.583,0-15.875
			C7.275,3.124,6.309,3.304,6.309,3.671L6.309,3.671z"/>
	</g>
</g>
<g>
	<g>
		<g>
			<path d="M12.368,4.506c1.17,0.138,2.349,0.254,3.521,0.086c-0.139-0.043-0.276-0.086-0.415-0.129
				c0.168,0.998,0.357,2.001,0.334,3.017c-0.009,0.389,0.958,0.181,0.965-0.126c0.023-1.064-0.156-2.104-0.332-3.15
				c-0.026-0.155-0.312-0.144-0.415-0.129c-1.019,0.146-2.047,0.039-3.062-0.081c-0.235-0.027-0.5,0.025-0.684,0.183
				C12.137,4.301,12.162,4.481,12.368,4.506L12.368,4.506z"/>
		</g>
	</g>
	<g>
		<g>
			<path d="M15.284,4.567c-1.406,1.258-2.709,2.625-4.103,3.896c-0.401,0.366,0.557,0.303,0.763,0.115
				c1.394-1.271,2.698-2.638,4.104-3.896C16.451,4.321,15.491,4.382,15.284,4.567L15.284,4.567z"/>
		</g>
	</g>
</g>
<g>
	<g>
		<path d="M11.108,13.583c1.686,1.278,3.015,2.958,4.646,4.292c0.209,0.17,1.064-0.206,0.91-0.332
			c-1.632-1.335-2.961-3.014-4.646-4.292C11.8,13.086,10.956,13.468,11.108,13.583L11.108,13.583z"/>
	</g>
</g>
<g>
	<g>
		<path d="M15.684,14.505c0.121,1.135,0.125,2.275,0.125,3.417c0.189-0.111,0.378-0.223,0.566-0.334
			c-1.023,0.143-2.06,0.038-3.088,0.029c-0.287-0.003-1.052,0.429-0.406,0.434c1.115,0.01,2.218,0.099,3.328-0.055
			c0.156-0.022,0.566-0.119,0.566-0.334c-0.001-1.141-0.005-2.281-0.125-3.417C16.626,14.021,15.653,14.216,15.684,14.505
			L15.684,14.505z"/>
	</g>
</g>
</svg>
