<?xml version="1.0" encoding="utf-8"?>
<!-- Generator: Adobe Illustrator 16.0.0, SVG Export Plug-In . SVG Version: 6.00 Build 0)  -->
<!DOCTYPE svg PUBLIC "-//W3C//DTD SVG 1.1//EN" "http://www.w3.org/Graphics/SVG/1.1/DTD/svg11.dtd">
<svg version="1.1" id="Layer_1" xmlns="http://www.w3.org/2000/svg" xmlns:xlink="http://www.w3.org/1999/xlink" x="0px" y="0px"
	 width="22px" height="22px" viewBox="0 0 22 22" enable-background="new 0 0 22 22" xml:space="preserve">
<g>
	<g>
		<path d="M7.611,5.487c2.734-2.898,5.944-1.542,7.045,1.762c0.785,2.356,0.181,4.827-0.928,6.958
			c-0.686,1.318-5.919,7.046-6.368,2.772c-0.338-3.209,5.051-7.978,7.795-5.516c0.388,0.348,2.124-0.388,1.819-0.661
			c-2.656-2.383-8.059,0.388-9.881,2.708c-0.795,1.013-2.813,4.276-1.082,5.466c1.418,0.975,3.315,0.5,4.731-0.298
			c4.755-2.681,7.98-8.617,5.035-13.78c-2.02-3.541-7.765-1.551-9.917,0.729C5.449,6.062,7.292,5.826,7.611,5.487L7.611,5.487z"/>
	</g>
</g>
</svg>
