<?xml version="1.0" encoding="utf-8"?>
<!-- Generator: Adobe Illustrator 16.0.0, SVG Export Plug-In . SVG Version: 6.00 Build 0)  -->
<!DOCTYPE svg PUBLIC "-//W3C//DTD SVG 1.1//EN" "http://www.w3.org/Graphics/SVG/1.1/DTD/svg11.dtd">
<svg version="1.1" id="Layer_1" xmlns="http://www.w3.org/2000/svg" xmlns:xlink="http://www.w3.org/1999/xlink" x="0px" y="0px"
	 width="256px" height="256px" viewBox="0 0 256 256" enable-background="new 0 0 256 256" xml:space="preserve">
<rect fill="#FFFFFF" width="256" height="256"/>
<path d="M164.622,89.203c4.788,0,6.706,0,6.706-4.554c0-2.38-1.918-2.38-6.225-2.38h-19.402c4.545-24.673,7.906-41.676,9.824-49.336
	c1.436-5.752,6.47-11.26,12.694-11.26c5.017,0,10.051,2.164,12.45,4.307c-9.342,0.975-12.223,7.907-12.223,11.969
	c0,4.799,3.598,7.68,8.142,7.68c4.789,0,11.968-4.08,11.968-13.177c0-10.051-10.051-15.567-20.583-15.567
	c-10.305,0-20.354,7.661-25.145,17.003c-4.306,8.388-6.71,17.003-12.213,48.382h-16.048c-4.554,0-6.938,0-6.938,4.307
	c0,2.627,1.437,2.627,6.225,2.627h15.326c-4.307,22.272-14.131,76.397-19.633,102.015c-4.081,20.837-7.675,38.312-19.647,38.312
	c-0.709,0-7.66,0-11.968-4.553c12.208-0.944,12.208-11.485,12.208-11.723c0-4.788-3.594-7.659-8.143-7.659
	c-4.793,0-11.973,4.06-11.973,13.157c0,10.306,10.537,15.566,19.875,15.566c24.422,0,34.491-43.81,37.117-55.797
	c4.308-18.438,16.048-82.121,17.248-89.318H164.622"/>
</svg>
